<?xml version="1.0" encoding="UTF-8"?>
<svg id="Calque_1" xmlns="http://www.w3.org/2000/svg"  viewBox="70 350 870 280">
  <defs>
    <style>
      .cls-1 {
        fill: #001e43;
      }

      .cls-2 {
        stroke-miterlimit: 10;
      }

      .cls-2, .cls-3, .cls-4 {
        fill: none;
        stroke: #acd7c3;
        stroke-width: 5px;
      }

      .cls-3 {
        stroke-linecap: round;
      }

      .cls-3, .cls-4 {
        stroke-linejoin: round;
      }

      .cls-5 {
        fill: #acd7c3;
      }
    </style>
  </defs>
  <path class="cls-1" d="M289.73,591.3c5.21,3.13,10.43,4.59,15.43,4.59,6.88,0,11.89-4.17,15.22-13.14l1.25-3.96-43.8-104.49h31.49l25.23,78.42,23.78-78.42h30.03l-40.46,107.41c-10.01,25.65-20.44,35.45-37.54,35.45-10.84,0-21.48-5.42-27.53-11.26l6.88-14.6Z"/>
  <g>
    <path class="cls-1" d="M442.64,401.2h65.92c33.51,0,53.13,15.21,53.13,45.41,0,21.83-11.9,36.82-30.86,39.9,11.24,1.76,20.94,11.68,24.69,29.32l4.19,19.18c1.98,9.48,5.51,16.76,8.38,20.28h-32.85c-2.65-3.53-4.85-7.94-7.28-18.52l-4.19-17.2c-3.75-15.87-12.57-24.03-27.34-24.03h-22.27v59.75h-31.53v-154.1ZM502.83,473.73c16.75,0,25.57-7.5,25.57-24.47s-7.94-22.71-25.35-22.71h-28.88v47.18h28.66Z"/>
    <path class="cls-1" d="M586.37,401.2h32.41v62.39h62.61v-62.39h32.41v154.1h-32.41v-64.38h-62.61v64.38h-32.41v-154.1Z"/>
  </g>
  <path class="cls-5" d="M80,383.13v171.93h37.99v-117.55c15.36,3.53,48.82,35.67,53.54,40.03,4.71-4.36,38.18-36.5,53.53-40.03v117.55h37.99v-171.93c-35.31,2.9-73.27,27.3-91.52,44.14-18.25-16.84-56.21-41.24-91.52-44.14Z"/>
  <g>
    <g>
      <g>
        <polyline class="cls-3" points="867.11 553.52 896.03 494.06 822.83 494.06 793.91 553.52"/>
        <line class="cls-3" x1="656.01" y1="554.27" x2="894.33" y2="554.27"/>
        <g>
          <path class="cls-2" d="M782.87,417.85c0,14.05-11.33,25.55-25.17,25.55s-25.15-11.49-25.15-25.55v-9.47c0-14.05,11.32-25.54,25.15-25.54s25.17,11.5,25.17,25.54v9.47Z"/>
          <path class="cls-4" d="M787.41,554.27c0-27.88-17.73-28.08-17.73-28.08h-37.04v-32.52"/>
          <path class="cls-4" d="M809.77,490.92c0-16.25-6.12-29.55-29.55-29.55h-3.7c-3.02,5.4-9.86,9.17-17.83,9.17s-14.81-3.78-17.84-9.17h-15.24c-16.25,0-26.86,13.3-26.86,29.55v43.35c0,16.25,8.38,20,24.63,20"/>
        </g>
      </g>
      <path class="cls-3" d="M855.45,419.56c-4.68-4.87-8.73-6.86-15.76-6.86l-1.09.04c-11.42.8-20.52,10.4-20.52,22.01v.84c0,11.49,9.02,22.02,20.15,22.02h16.47"/>
      <polyline class="cls-4" points="882.3 441.48 868.23 427.48 854.16 441.48"/>
      <path class="cls-3" d="M868.24,428.14v29.48h28.09c12.14,0,22.06-9.89,22.06-22.02v-.84c0-12.13-9.93-22.06-22.06-22.06h-5.61v-1.73c0-12.42-10.06-22.48-22.48-22.48-8.65,0-16.15,4.88-19.91,12.05"/>
    </g>
    <line class="cls-3" x1="909.75" y1="554.27" x2="920" y2="554.27"/>
  </g>
</svg>