<?xml version="1.0" encoding="UTF-8"?>
<svg id="Calque_1" data-name="Calque 1" xmlns="http://www.w3.org/2000/svg" version="1.1" viewBox="0 0 367.3 345.9">
  <defs>
    <style>
      .cls-1 {
        stroke-linecap: round;
      }

      .cls-1, .cls-2, .cls-3 {
        stroke: #202e51;
        stroke-width: 5px;
      }

      .cls-1, .cls-3 {
        fill: none;
        stroke-linejoin: round;
      }

      .cls-2 {
        stroke-miterlimit: 10;
      }

      .cls-2, .cls-4 {
        fill: #fff;
      }

      .cls-5 {
        fill: #acd7c3;
      }

      .cls-5, .cls-4 {
        stroke-width: 0px;
      }
    </style>
  </defs>
  <path class="cls-5" d="M33.9,36.8v279.9h61.8V125.4c25,5.8,79.5,58.1,87.1,65.2,7.7-7.1,62.1-59.4,87.1-65.2v191.3h61.8V36.8c-57.5,4.7-119.3,44.4-149,71.9-29.7-27.4-91.5-67.1-149-71.9h0Z"/>
  <g>
    <path class="cls-4" d="M212.9,171.6v-36.3s-1.9-28.7-32-24.5c-1.5,1.6-5.3,10.2-17,8.8-17.9-1.5-17-8.8-17-8.8h-19.7s-14,1.1-16.7,12.8c-2.6,11.7-3.8,58.7-3.8,58.7,0,0-4.9,18,21.1,16.6s54.7.7,54.7.7l84.6,1.2,26.6-57.7h-62.4c0-.1-6.7.8-6.7.8l-11.5,27.7h0Z"/>
    <path class="cls-4" d="M249.2,53.1l10.5-10.5s9.6-6.7,20.1,3.8,10.9,15.5,12.6,18.3,20.8-3.9,25.6,23.8c-5.7,4.8.2,19.4-25.2,18.8-25.4-.6-22.5-.6-22.5-.6l-30.4.6s-28.9-11.3-17.4-27.5c11.5-16.1,5.9-15.7,17.8-15.4,11.8.2,9-11.2,9-11.2h0Z"/>
    <g>
      <g>
        <g>
          <polyline class="cls-1" points="267.5 198.9 295.1 142.1 225.2 142.1 224.2 144 197.5 198.9"/>
          <line class="cls-1" x1="65.8" y1="199.6" x2="293.5" y2="199.6"/>
          <g>
            <path class="cls-2" d="M187,69.2c0,13.4-10.8,24.4-24,24.4s-24-11-24-24.4v-9c0-13.4,10.8-24.4,24-24.4s24,11,24,24.4v9Z"/>
            <path class="cls-3" d="M191.3,199.6c0-26.6-16.9-26.8-16.9-26.8h-35.4v-31.1"/>
            <path class="cls-3" d="M212.7,139c0-15.5-5.8-28.2-28.2-28.2h-3.5c-2.9,5.2-9.4,8.8-17,8.8s-14.1-3.6-17-8.8h-14.6c-15.5,0-25.7,12.7-25.7,28.2v41.4c0,15.5,8,19.1,23.5,19.1"/>
          </g>
        </g>
        <path class="cls-1" d="M256.4,70.9c-4.5-4.6-8.3-6.5-15.1-6.5h-1c-10.9.8-19.6,10-19.6,21.1v.8c0,11,8.6,21,19.3,21h15.7"/>
        <polyline class="cls-3" points="282 91.8 268.6 78.4 255.1 91.8"/>
        <path class="cls-1" d="M268.6,79.1v28.2h26.8c11.6,0,21.1-9.5,21.1-21v-.8c0-11.6-9.5-21.1-21.1-21.1h-5.4v-1.6c0-11.9-9.6-21.5-21.5-21.5s-15.4,4.7-19,11.5"/>
      </g>
      <line class="cls-1" x1="308.2" y1="199.6" x2="318" y2="199.6"/>
    </g>
  </g>
</svg>